<?xml version="1.0" encoding="utf-8"?>
<!-- Generator: Adobe Illustrator 15.1.0, SVG Export Plug-In . SVG Version: 6.00 Build 0)  -->
<!DOCTYPE svg PUBLIC "-//W3C//DTD SVG 1.1//EN" "http://www.w3.org/Graphics/SVG/1.1/DTD/svg11.dtd">
<svg version="1.1" id="Layer_1" xmlns="http://www.w3.org/2000/svg" xmlns:xlink="http://www.w3.org/1999/xlink" x="0px" y="0px"
	 width="2267.72px" height="1700.79px" viewBox="0 0 2267.72 1700.79" enable-background="new 0 0 2267.72 1700.79"
	 xml:space="preserve">
<g>
	<path fill="none" stroke="#000000" stroke-miterlimit="10" d="M2225.198,1615.748c0,23.482-19.036,42.52-42.52,42.52H85.041
		c-23.483,0-42.52-19.037-42.52-42.52V85.039c0-23.483,19.037-42.52,42.52-42.52h2097.638c23.483,0,42.52,19.037,42.52,42.52
		V1615.748z"/>
	<rect x="42.521" y="1488.188" fill="none" stroke="#000000" stroke-miterlimit="10" width="2182.677" height="85.039"/>
</g>
<text transform="matrix(1 0 0 1 68.3682 1798.4648)"><tspan x="0" y="0" fill="none" stroke="#F68827" stroke-miterlimit="10" font-family="'Eng_HelvLine'" font-size="36">Date: 13-06-12</tspan><tspan x="302.469" y="0" fill="none" stroke="#F68827" stroke-miterlimit="10" font-family="'Eng_HelvLine'" font-size="36" letter-spacing="3">	</tspan><tspan x="324" y="0" fill="none" stroke="#F68827" stroke-miterlimit="10" font-family="'Eng_HelvLine'" font-size="36" letter-spacing="18">	</tspan><tspan x="360" y="0" fill="none" stroke="#F68827" stroke-miterlimit="10" font-family="'Eng_HelvLine'" font-size="36">File Name: DRBO-03</tspan><tspan x="814.423" y="0" fill="none" stroke="#F68827" stroke-miterlimit="10" font-family="'Eng_HelvLine'" font-size="36" letter-spacing="-4">	</tspan><tspan x="828" y="0" fill="none" stroke="#F68827" stroke-miterlimit="10" font-family="'Eng_HelvLine'" font-size="36" letter-spacing="18">	</tspan><tspan x="864" y="0" fill="none" stroke="#F68827" stroke-miterlimit="10" font-family="'Eng_HelvLine'" font-size="36">Version:</tspan><tspan x="1041.838" y="0" fill="none" stroke="#F68827" stroke-miterlimit="10" font-family="'Eng_HelvLine'" font-size="36" letter-spacing="-15">	</tspan><tspan x="1044" y="0" fill="none" stroke="#F68827" stroke-miterlimit="10" font-family="'Eng_HelvLine'" font-size="36" letter-spacing="18">	</tspan><tspan x="1080" y="0" fill="none" stroke="#F68827" stroke-miterlimit="10" font-family="'Eng_HelvLine'" font-size="36">Contributor: Stuart Childs stuchilds</tspan><tspan x="1866.016" y="0" fill="none" stroke="#F68827" stroke-miterlimit="10" font-family="'MyriadPro-Regular'" font-size="36">@</tspan><tspan x="1892.548" y="0" fill="none" stroke="#F68827" stroke-miterlimit="10" font-family="'Eng_HelvLine'" font-size="36">gmail.com</tspan><tspan x="2115.204" y="0" fill="none" stroke="#F68827" stroke-miterlimit="10" font-family="'Eng_HelvLine'" font-size="36" letter-spacing="-9">	</tspan><tspan x="2124" y="0" fill="none" stroke="#F68827" stroke-miterlimit="10" font-family="'Eng_HelvLine'" font-size="36" letter-spacing="18">	</tspan><tspan x="0" y="86.4" fill="none" stroke="#F68827" stroke-miterlimit="10" font-family="'Eng_HelvLine'" font-size="36">License: Creative Commons Attribution Sharealike 3.0 Unported</tspan><tspan x="1401.751" y="86.4" fill="none" stroke="#F68827" stroke-miterlimit="10" font-family="'Eng_HelvLine'" font-size="36" letter-spacing="-15">	</tspan><tspan x="1404" y="86.4" fill="none" stroke="#F68827" stroke-miterlimit="10" font-family="'Eng_HelvLine'" font-size="36" letter-spacing="18">	</tspan></text>
<text transform="matrix(1 0 0 1 68.3682 1538.377)"><tspan x="0" y="0" fill="none" stroke="#F68827" stroke-miterlimit="10" font-family="'Eng_HelvLine'" font-size="36">Date: 3-3-16</tspan><tspan x="259.773" y="0" fill="none" stroke="#F68827" stroke-miterlimit="10" font-family="'Eng_HelvLine'" font-size="36" letter-spacing="10">	</tspan><tspan x="288" y="0" fill="none" stroke="#F68827" stroke-miterlimit="10" font-family="'Eng_HelvLine'" font-size="36" letter-spacing="18">	</tspan><tspan x="324" y="0" fill="none" stroke="#F68827" stroke-miterlimit="10" font-family="'Eng_HelvLine'" font-size="36">File Name: RPCB</tspan><tspan x="708.152" y="0" fill="none" stroke="#F68827" stroke-miterlimit="10" font-family="'Eng_HelvLine'" font-size="36" letter-spacing="-6">	</tspan><tspan x="720" y="0" fill="none" stroke="#F68827" stroke-miterlimit="10" font-family="'Eng_HelvLine'" font-size="36" letter-spacing="18">	</tspan><tspan x="756" y="0" fill="none" stroke="#F68827" stroke-miterlimit="10" font-family="'Eng_HelvLine'" font-size="36">Version:</tspan><tspan x="933.838" y="0" fill="none" stroke="#F68827" stroke-miterlimit="10" font-family="'Eng_HelvLine'" font-size="36" letter-spacing="-15">	</tspan><tspan x="936" y="0" fill="none" stroke="#F68827" stroke-miterlimit="10" font-family="'Eng_HelvLine'" font-size="36" letter-spacing="18">	</tspan><tspan x="972.001" y="0" fill="none" stroke="#F68827" stroke-miterlimit="10" font-family="'Eng_HelvLine'" font-size="36">Contributor: Stuart Childs stuchilds</tspan><tspan x="1758.016" y="0" fill="none" stroke="#F68827" stroke-miterlimit="10" font-family="'MyriadPro-Regular'" font-size="36">@</tspan><tspan x="1784.548" y="0" fill="none" stroke="#F68827" stroke-miterlimit="10" font-family="'Eng_HelvLine'" font-size="36">gmail.com</tspan><tspan x="2007.204" y="0" fill="none" stroke="#F68827" stroke-miterlimit="10" font-family="'Eng_HelvLine'" font-size="36" letter-spacing="-9">	</tspan><tspan x="2016" y="0" fill="none" stroke="#F68827" stroke-miterlimit="10" font-family="'Eng_HelvLine'" font-size="36" letter-spacing="18">	</tspan><tspan x="0" y="86.4" fill="none" stroke="#F68827" stroke-miterlimit="10" font-family="'Eng_HelvLine'" font-size="36">License: Creative Commons Attribution Sharealike 4.0 Unported</tspan><tspan x="1403.479" y="86.4" fill="none" stroke="#F68827" stroke-miterlimit="10" font-family="'Eng_HelvLine'" font-size="36" letter-spacing="-17">	</tspan><tspan x="1404" y="86.4" fill="none" stroke="#F68827" stroke-miterlimit="10" font-family="'Eng_HelvLine'" font-size="36" letter-spacing="18">	</tspan></text>
<rect x="2172.826" y="1443.826" fill="none" stroke="#F68827" stroke-miterlimit="10" width="28.347" height="28.347"/>
<g>
	<path fill="none" stroke="#F68827" stroke-miterlimit="10" d="M1830.944,1460.075c0,2.881,2.197,4.033,4.771,4.033
		c2.611,0,4.249-1.639,4.304-3.241c0.054-1.585-0.757-2.845-2.359-3.188l-4.411-0.954c-1.242-0.27-1.98-0.99-1.98-2.683
		s1.423-3.15,4.016-3.15s4.483,1.224,4.411,3.366c0.072-2.143-1.818-3.366-4.411-3.366s-4.016,1.458-4.016,3.15
		s0.702,2.395,1.98,2.683l4.411,0.954c1.639,0.343,2.413,1.603,2.359,3.188c-0.055,1.603-1.692,3.241-4.304,3.241
		C1833.142,1464.108,1830.944,1462.956,1830.944,1460.075z"/>
	<path fill="none" stroke="#F68827" stroke-miterlimit="10" d="M1851.719,1461.065c-0.054,1.512-1.674,2.935-3.205,2.935
		c-1.512,0-4.123-0.252-4.123-4.771c0-4.501,2.917-4.556,4.195-4.556s2.971,0.99,3.079,2.251c-0.108-1.261-1.801-2.251-3.079-2.251
		s-4.195,0.055-4.195,4.556c0,4.52,2.611,4.771,4.123,4.771C1850.045,1464,1851.665,1462.577,1851.719,1461.065z"/>
	<path fill="none" stroke="#F68827" stroke-miterlimit="10" d="M1858.629,1464.108c-1.494-0.055-2.683-0.522-2.683-2.179
		c0-1.675,1.009-2.377,2.917-2.557c1.891-0.181,2.737-0.469,3.637-0.721c-0.899,0.252-1.746,0.54-3.637,0.721
		c-1.908,0.18-2.917,0.882-2.917,2.557C1855.946,1463.586,1857.135,1464.054,1858.629,1464.108c1.477,0.054,3.331-1.692,3.871-2.467
		C1861.96,1462.416,1860.105,1464.162,1858.629,1464.108z M1862.5,1462.83v-5.924c0-0.757-0.378-2.197-2.809-2.197
		s-3.331,1.099-3.331,2.232c0-1.134,0.9-2.232,3.331-2.232s2.809,1.44,2.809,2.197V1462.83c0,1.08,1.279,1.17,1.279,1.17
		S1862.5,1463.91,1862.5,1462.83z"/>
	<path fill="none" stroke="#F68827" stroke-miterlimit="10" d="M1869.986,1464v-12.981V1464z"/>
	<path fill="none" stroke="#F68827" stroke-miterlimit="10" d="M1875.999,1459.066h8.048c0-1.998-0.792-4.556-3.655-4.556
		c-2.845,0-4.411,1.945-4.411,4.916c0,2.989,2.017,4.573,4.411,4.501c2.413-0.072,3.457-1.944,3.583-2.61
		c-0.126,0.666-1.17,2.538-3.583,2.61c-2.395,0.072-4.411-1.512-4.411-4.501c0-2.971,1.566-4.916,4.411-4.916
		c2.863,0,3.655,2.558,3.655,4.556H1875.999z"/>
	<path fill="none" stroke="#F68827" stroke-miterlimit="10" d="M1890.436,1458.311v-0.99V1458.311z M1890.436,1464v-0.99V1464z"/>
	<path fill="none" stroke="#F68827" stroke-miterlimit="10" d="M1911.693,1456.42c0.036-0.45-0.558-1.711-2.826-1.801
		c-2.269-0.054-3.313,0.666-3.313,2.053c0,1.404,1.171,1.837,1.603,1.963l3.403,1.008c0.45,0.108,1.53,0.595,1.53,1.927
		s-1.422,2.431-3.223,2.431s-3.439-0.954-3.439-2.358c0,1.404,1.639,2.358,3.439,2.358s3.223-1.099,3.223-2.431
		s-1.08-1.818-1.53-1.927l-3.403-1.008c-0.432-0.126-1.603-0.559-1.603-1.963c0-1.387,1.045-2.106,3.313-2.053
		C1911.136,1454.709,1911.729,1455.97,1911.693,1456.42z"/>
	<path fill="none" stroke="#F68827" stroke-miterlimit="10" d="M1916.265,1459.337c0-3.638,1.729-4.718,3.817-4.718
		c2.106,0,3.816,1.08,3.816,4.718c0,3.655-1.71,4.699-3.816,4.699C1917.993,1464.036,1916.265,1462.992,1916.265,1459.337z
		 M1916.265,1459.337c0-3.638,1.729-4.718,3.817-4.718c2.106,0,3.816,1.08,3.816,4.718c0,3.655-1.71,4.699-3.816,4.699
		C1917.993,1464.036,1916.265,1462.992,1916.265,1459.337z M1923.935,1454.619v13.018V1454.619z"/>
	<path fill="none" stroke="#F68827" stroke-miterlimit="10" d="M1931.133,1454.728c0,0,0,6.031,0,6.859
		c0,0.829,0.828,2.377,3.114,2.396c2.305,0.018,3.529-1.765,3.529-3.422c0,1.657-1.225,3.439-3.529,3.422
		c-2.286-0.019-3.114-1.566-3.114-2.396C1931.133,1460.759,1931.133,1454.728,1931.133,1454.728z M1937.776,1454.728v9.255V1454.728
		z"/>
	<path fill="none" stroke="#F68827" stroke-miterlimit="10" d="M1950.609,1461.642c-0.54,0.774-2.395,2.521-3.871,2.467
		c-1.494-0.055-2.683-0.522-2.683-2.179c0-1.675,1.009-2.377,2.917-2.557c1.891-0.181,2.737-0.469,3.637-0.721
		c-0.899,0.252-1.746,0.54-3.637,0.721c-1.908,0.18-2.917,0.882-2.917,2.557c0,1.656,1.188,2.124,2.683,2.179
		C1948.215,1464.162,1950.069,1462.416,1950.609,1461.642z M1951.889,1464c0,0-1.279-0.09-1.279-1.17v-5.924
		c0-0.757-0.378-2.197-2.809-2.197s-3.331,1.099-3.331,2.232c0-1.134,0.9-2.232,3.331-2.232s2.809,1.44,2.809,2.197v5.924
		C1950.609,1463.91,1951.889,1464,1951.889,1464z"/>
	<path fill="none" stroke="#F68827" stroke-miterlimit="10" d="M1961.68,1454.764c-1.675-0.019-3.584,2.448-3.529,4.519
		C1958.096,1457.212,1960.005,1454.745,1961.68,1454.764z M1958.15,1454.764V1464V1454.764z"/>
	<path fill="none" stroke="#F68827" stroke-miterlimit="10" d="M1965.836,1459.066h8.048c0-1.998-0.792-4.556-3.655-4.556
		c-2.845,0-4.411,1.945-4.411,4.916c0,2.989,2.017,4.573,4.411,4.501c2.413-0.072,3.457-1.944,3.584-2.61
		c-0.127,0.666-1.171,2.538-3.584,2.61c-2.395,0.072-4.411-1.512-4.411-4.501c0-2.971,1.566-4.916,4.411-4.916
		c2.863,0,3.655,2.558,3.655,4.556H1965.836z"/>
	<path fill="none" stroke="#F68827" stroke-miterlimit="10" d="M1989.29,1451.324V1451V1451.324z M1989.29,1463.982v-9.237
		C1989.29,1454.745,1989.29,1464.018,1989.29,1463.982z"/>
	<path fill="none" stroke="#F68827" stroke-miterlimit="10" d="M1998.723,1454.619c-2.269-0.054-3.313,0.666-3.313,2.053
		c0,1.404,1.171,1.837,1.603,1.963l3.403,1.008c0.45,0.108,1.53,0.595,1.53,1.927s-1.422,2.431-3.223,2.431
		s-3.439-0.954-3.439-2.358c0,1.404,1.639,2.358,3.439,2.358s3.223-1.099,3.223-2.431s-1.08-1.818-1.53-1.927l-3.403-1.008
		c-0.432-0.126-1.603-0.559-1.603-1.963C1995.409,1455.285,1996.454,1454.565,1998.723,1454.619c2.269,0.09,2.862,1.351,2.826,1.801
		C2001.585,1455.97,2000.991,1454.709,1998.723,1454.619z"/>
	<path fill="none" stroke="#F68827" stroke-miterlimit="10" d="M2018.198,1464v-12.981c0,2.214-2.143,2.736-3.062,2.809
		c0.919-0.072,3.062-0.595,3.062-2.809V1464z"/>
	<path fill="none" stroke="#F68827" stroke-miterlimit="10" d="M2024.245,1457.518c0-3.564,0.757-6.481,3.926-6.481
		s3.925,2.917,3.925,6.481c0,3.584-0.756,6.482-3.925,6.482S2024.245,1461.102,2024.245,1457.518z M2024.245,1457.518
		c0-3.564,0.757-6.481,3.926-6.481s3.925,2.917,3.925,6.481c0,3.584-0.756,6.482-3.925,6.482S2024.245,1461.102,2024.245,1457.518z"
		/>
	<path fill="none" stroke="#F68827" stroke-miterlimit="10" d="M2044.443,1464c0,0,0-6.014,0-6.842s-0.54-2.377-2.827-2.395
		c-2.287-0.019-3.313,1.764-3.313,3.421c0-1.657,1.026-3.439,3.313-3.421c2.287,0.018,2.827,1.566,2.827,2.395
		S2044.443,1464,2044.443,1464z M2038.303,1464v-9.236V1464z M2050.637,1464c0,0,0-6.014,0-6.842s-0.792-2.377-3.079-2.395
		c-2.286-0.019-3.114,1.764-3.114,3.421c0-1.657,0.828-3.439,3.114-3.421c2.287,0.018,3.079,1.566,3.079,2.395
		S2050.637,1464,2050.637,1464z"/>
	<path fill="none" stroke="#F68827" stroke-miterlimit="10" d="M2064.207,1464c0,0,0-6.014,0-6.842s-0.54-2.377-2.827-2.395
		c-2.287-0.019-3.313,1.764-3.313,3.421c0-1.657,1.026-3.439,3.313-3.421c2.287,0.018,2.827,1.566,2.827,2.395
		S2064.207,1464,2064.207,1464z M2058.066,1464v-9.236V1464z M2070.4,1464c0,0,0-6.014,0-6.842s-0.792-2.377-3.079-2.395
		c-2.286-0.019-3.114,1.764-3.114,3.421c0-1.657,0.828-3.439,3.114-3.421c2.287,0.018,3.079,1.566,3.079,2.395
		S2070.4,1464,2070.4,1464z"/>
	<path fill="none" stroke="#F68827" stroke-miterlimit="10" d="M2084.886,1464l3.709-5.149l-2.952-4.087l2.952,4.087l2.972-4.087
		l-2.972,4.087l3.728,5.149l-3.728-5.149L2084.886,1464z"/>
	<path fill="none" stroke="#F68827" stroke-miterlimit="10" d="M2108.63,1464v-12.981c0,2.214-2.143,2.736-3.062,2.809
		c0.919-0.072,3.062-0.595,3.062-2.809V1464z"/>
	<path fill="none" stroke="#F68827" stroke-miterlimit="10" d="M2114.676,1457.518c0-3.564,0.757-6.481,3.926-6.481
		s3.925,2.917,3.925,6.481c0,3.584-0.756,6.482-3.925,6.482S2114.676,1461.102,2114.676,1457.518z M2114.676,1457.518
		c0-3.564,0.757-6.481,3.926-6.481s3.925,2.917,3.925,6.481c0,3.584-0.756,6.482-3.925,6.482S2114.676,1461.102,2114.676,1457.518z"
		/>
	<path fill="none" stroke="#F68827" stroke-miterlimit="10" d="M2134.875,1457.158c0-0.828-0.54-2.377-2.827-2.395
		c-2.287-0.019-3.313,1.764-3.313,3.421c0-1.657,1.026-3.439,3.313-3.421C2134.335,1454.781,2134.875,1456.33,2134.875,1457.158
		s0,6.842,0,6.842S2134.875,1457.986,2134.875,1457.158z M2128.734,1454.764V1464V1454.764z M2141.068,1457.158
		c0-0.828-0.792-2.377-3.079-2.395c-2.286-0.019-3.114,1.764-3.114,3.421c0-1.657,0.828-3.439,3.114-3.421
		C2140.276,1454.781,2141.068,1456.33,2141.068,1457.158s0,6.842,0,6.842S2141.068,1457.986,2141.068,1457.158z"/>
	<path fill="none" stroke="#F68827" stroke-miterlimit="10" d="M2154.639,1457.158c0-0.828-0.54-2.377-2.827-2.395
		c-2.287-0.019-3.313,1.764-3.313,3.421c0-1.657,1.026-3.439,3.313-3.421C2154.099,1454.781,2154.639,1456.33,2154.639,1457.158
		s0,6.842,0,6.842S2154.639,1457.986,2154.639,1457.158z M2148.498,1454.764V1464V1454.764z M2160.832,1457.158
		c0-0.828-0.792-2.377-3.079-2.395c-2.286-0.019-3.114,1.764-3.114,3.421c0-1.657,0.828-3.439,3.114-3.421
		C2160.04,1454.781,2160.832,1456.33,2160.832,1457.158s0,6.842,0,6.842S2160.832,1457.986,2160.832,1457.158z"/>
</g>
<text transform="matrix(1 0 0 1 1837.1094 1268.7314)"><tspan x="0" y="0" fill="none" stroke="#000000" stroke-miterlimit="10" font-family="'Eng_HelvLine'" font-size="12">RasPi Camera box</tspan><tspan x="0" y="14.399" fill="none" stroke="#000000" stroke-miterlimit="10" font-family="'Eng_HelvLine'" font-size="12">See for more details:</tspan><tspan x="0" y="28.8" fill="none" stroke="#000000" stroke-miterlimit="10" font-family="'Eng_HelvLine'" font-size="12">https://github.com/DesignSparkrs/pi-selfie-camera</tspan><tspan x="0" y="57.601" fill="none" stroke="#000000" stroke-miterlimit="10" font-family="'Eng_HelvLine'" font-size="12">KEY:</tspan><tspan x="0" y="88.399" fill="none" stroke="#F68827" stroke-miterlimit="10" font-family="'Eng_HelvLine'" font-size="12">Orange - vector etch</tspan><tspan x="0" y="100.8" fill="none" stroke="#9D53A0" stroke-miterlimit="10" font-family="'Eng_HelvLine'" font-size="12">Purple - vector cut 3mm acrylic sheet stock</tspan><tspan x="0" y="115.2" fill="none" stroke="#72BF44" stroke-miterlimit="10" font-family="'Eng_HelvLine'" font-size="12">Green - vector cut 3mm frosted acrylic sheet stock </tspan><tspan x="0" y="129.6" fill="none" stroke="#000000" stroke-miterlimit="10" font-family="'Eng_HelvLine'" font-size="12">Black - vector cut 5mm acrylic sheet stock</tspan></text>
<rect x="394.198" y="996.468" fill="none" stroke="#000000" stroke-miterlimit="10" width="14.599" height="17.008"/>
<rect x="394.198" y="1081.507" fill="none" stroke="#000000" stroke-miterlimit="10" width="14.599" height="17.008"/>
<rect x="394.198" y="1166.548" fill="none" stroke="#000000" stroke-miterlimit="10" width="14.599" height="17.008"/>
<rect x="394.198" y="911.427" fill="none" stroke="#000000" stroke-miterlimit="10" width="14.599" height="17.008"/>
<rect x="394.198" y="826.39" fill="none" stroke="#000000" stroke-miterlimit="10" width="14.599" height="17.006"/>
<rect x="394.198" y="741.35" fill="none" stroke="#000000" stroke-miterlimit="10" width="14.599" height="17.008"/>
<rect x="946.957" y="996.468" fill="none" stroke="#000000" stroke-miterlimit="10" width="14.599" height="17.008"/>
<rect x="946.957" y="1081.507" fill="none" stroke="#000000" stroke-miterlimit="10" width="14.599" height="17.008"/>
<rect x="946.957" y="1166.548" fill="none" stroke="#000000" stroke-miterlimit="10" width="14.599" height="17.008"/>
<rect x="946.957" y="911.427" fill="none" stroke="#000000" stroke-miterlimit="10" width="14.599" height="17.008"/>
<rect x="946.957" y="826.39" fill="none" stroke="#000000" stroke-miterlimit="10" width="14.599" height="17.006"/>
<rect x="946.957" y="741.35" fill="none" stroke="#000000" stroke-miterlimit="10" width="14.599" height="17.008"/>
<rect x="626.85" y="678.778" fill="none" stroke="#000000" stroke-miterlimit="10" width="17.008" height="14.599"/>
<rect x="541.811" y="678.778" fill="none" stroke="#000000" stroke-miterlimit="10" width="17.008" height="14.599"/>
<rect x="456.77" y="678.778" fill="none" stroke="#000000" stroke-miterlimit="10" width="17.008" height="14.599"/>
<rect x="711.891" y="678.778" fill="none" stroke="#000000" stroke-miterlimit="10" width="17.008" height="14.599"/>
<rect x="796.93" y="678.778" fill="none" stroke="#000000" stroke-miterlimit="10" width="17.008" height="14.599"/>
<rect x="881.971" y="678.778" fill="none" stroke="#000000" stroke-miterlimit="10" width="17.008" height="14.599"/>
<rect x="626.85" y="1231.534" fill="none" stroke="#000000" stroke-miterlimit="10" width="17.008" height="14.598"/>
<rect x="541.81" y="1231.534" fill="none" stroke="#000000" stroke-miterlimit="10" width="17.008" height="14.598"/>
<rect x="456.77" y="1231.534" fill="none" stroke="#000000" stroke-miterlimit="10" width="17.008" height="14.598"/>
<rect x="711.89" y="1231.534" fill="none" stroke="#000000" stroke-miterlimit="10" width="17.008" height="14.598"/>
<rect x="796.93" y="1231.534" fill="none" stroke="#000000" stroke-miterlimit="10" width="17.008" height="14.598"/>
<rect x="881.97" y="1231.534" fill="none" stroke="#000000" stroke-miterlimit="10" width="17.008" height="14.598"/>
<path fill="none" stroke="#000000" stroke-miterlimit="10" d="M961.339,670.487c4.696,0,8.504,3.807,8.504,8.504v566.926
	c0,4.697-3.808,8.504-8.504,8.504H394.41c-4.696,0-8.504-3.807-8.504-8.504V678.991c0-4.697,3.808-8.504,8.504-8.504H961.339z"/>
<circle fill="none" stroke="#000000" stroke-miterlimit="10" cx="428.428" cy="713.011" r="8.504"/>
<circle fill="none" stroke="#000000" stroke-miterlimit="10" cx="428.428" cy="1211.911" r="8.504"/>
<circle fill="none" stroke="#000000" stroke-miterlimit="10" cx="927.331" cy="713.011" r="8.504"/>
<circle fill="none" stroke="#000000" stroke-miterlimit="10" cx="927.331" cy="1211.911" r="8.504"/>
<circle fill="none" stroke="#000000" stroke-miterlimit="10" cx="677.875" cy="686.078" r="8.504"/>
<circle fill="none" stroke="#000000" stroke-miterlimit="10" cx="677.875" cy="1238.833" r="8.504"/>
<circle fill="none" stroke="#000000" stroke-miterlimit="10" cx="401.496" cy="962.45" r="8.504"/>
<circle fill="none" stroke="#000000" stroke-miterlimit="10" cx="954.255" cy="962.45" r="8.504"/>
<circle fill="none" stroke="#000000" stroke-miterlimit="10" cx="634.695" cy="856.086" r="4.252"/>
<circle fill="none" stroke="#000000" stroke-miterlimit="10" cx="706.697" cy="1010.587" r="4.252"/>
<rect x="599.052" y="842.077" fill="none" stroke="#F58220" stroke-width="0.216" stroke-miterlimit="2.6131" width="157.645" height="240.75"/>
<text transform="matrix(-1 0 0 -1 716.1543 959.0957)" fill="none" stroke="#F58220" stroke-width="0.216" stroke-miterlimit="2.6131" font-family="'ArialMT'" font-size="12">Raspberry Pi</text>
<circle fill="none" stroke="#000000" stroke-miterlimit="10" cx="747.324" cy="1072.882" r="4.252"/>
<circle fill="none" stroke="#000000" stroke-miterlimit="10" cx="608.425" cy="1072.882" r="4.252"/>
<circle fill="none" stroke="#000000" stroke-miterlimit="10" cx="747.324" cy="908.47" r="4.252"/>
<circle fill="none" stroke="#000000" stroke-miterlimit="10" cx="608.425" cy="908.47" r="4.252"/>
<rect x="1900.7" y="724.526" fill="none" stroke="#000000" stroke-miterlimit="10" width="218.268" height="344.406"/>
<circle fill="none" stroke="#000000" stroke-miterlimit="10" cx="2130.355" cy="1059.72" r="4.961"/>
<circle fill="none" stroke="#000000" stroke-miterlimit="10" cx="2130.355" cy="733.738" r="4.961"/>
<circle fill="none" stroke="#000000" stroke-miterlimit="10" cx="1892.243" cy="1059.72" r="4.252"/>
<circle fill="none" stroke="#000000" stroke-miterlimit="10" cx="1892.243" cy="733.738" r="4.252"/>
<circle fill="none" stroke="#000000" stroke-miterlimit="10" cx="1755.894" cy="925.782" r="3.543"/>
<circle fill="none" stroke="#000000" stroke-miterlimit="10" cx="1755.894" cy="867.673" r="3.543"/>
<circle fill="none" stroke="#000000" stroke-miterlimit="10" cx="1791.327" cy="925.782" r="3.543"/>
<circle fill="none" stroke="#000000" stroke-miterlimit="10" cx="1791.327" cy="867.673" r="3.543"/>
<rect x="1744.837" y="885.388" fill="none" stroke="#000000" stroke-miterlimit="10" width="22.677" height="22.678"/>
<circle fill="none" stroke="#000000" stroke-miterlimit="10" cx="1685.309" cy="1117.12" r="19.984"/>
<circle fill="none" stroke="#000000" stroke-miterlimit="10" cx="1756.174" cy="1117.12" r="19.984"/>
<circle fill="none" stroke="#000000" stroke-miterlimit="10" cx="1827.045" cy="1117.12" r="19.984"/>
<polygon fill="none" stroke="#000000" stroke-miterlimit="10" points="2175.658,905.933 2158.509,905.931 2158.508,912.31 
	2138.664,912.31 2138.665,881.128 2158.508,881.128 2158.509,887.507 2175.656,887.505 2175.66,887.505 2175.66,862.706 
	2189.833,862.706 2189.833,845.699 2175.66,845.699 2175.66,777.67 2189.833,777.67 2189.833,760.662 2175.66,760.662 
	2175.66,692.63 2189.833,692.63 2189.833,675.622 2175.66,675.622 2175.66,635.941 2175.661,630.271 2175.665,630.271 
	2175.665,613.261 2076.454,613.261 2076.454,627.437 1955.98,627.437 1955.98,613.261 1842.595,613.261 1842.595,627.437 
	1722.118,627.437 1722.118,613.261 1622.905,613.261 1622.905,627.437 1622.905,630.271 1622.905,675.622 1608.727,675.622 
	1608.727,692.63 1622.905,692.63 1622.905,760.662 1608.727,760.662 1608.727,777.67 1622.905,777.67 1622.905,845.699 
	1608.727,845.699 1608.727,862.706 1622.905,862.706 1622.905,930.739 1608.727,930.739 1608.727,947.747 1622.905,947.747 
	1622.905,1015.778 1608.727,1015.778 1608.727,1032.786 1622.905,1032.786 1622.905,1100.819 1608.727,1100.819 1608.727,1117.827 
	1622.905,1117.827 1622.905,1163.187 1622.905,1166.017 1622.905,1180.194 1722.118,1180.194 1722.118,1166.017 1842.595,1166.017 
	1842.595,1180.194 1955.98,1180.194 1955.98,1166.017 2076.454,1166.017 2076.454,1180.194 2175.665,1180.194 2175.665,1163.187 
	2175.661,1163.187 2175.66,1157.517 2175.66,1117.827 2189.833,1117.827 2189.833,1100.819 2175.66,1100.819 2175.66,1032.786 
	2189.833,1032.786 2189.833,1015.778 2175.66,1015.778 2175.66,947.747 2189.833,947.747 2189.833,930.739 2175.66,930.739 
	2175.66,905.933 "/>
<circle fill="none" stroke="#000000" stroke-miterlimit="10" cx="1756.175" cy="797.507" r="9.071"/>
<circle fill="none" stroke="#000000" stroke-miterlimit="10" cx="1670.988" cy="811.534" r="4.252"/>
<circle fill="none" stroke="#000000" stroke-miterlimit="10" cx="1670.989" cy="981.904" r="4.252"/>
<circle fill="none" stroke="#000000" stroke-miterlimit="10" cx="1841.362" cy="981.902" r="4.252"/>
<circle fill="none" stroke="#000000" stroke-miterlimit="10" cx="1841.362" cy="811.533" r="4.252"/>
<circle fill="none" stroke="#000000" stroke-miterlimit="10" cx="1730.497" cy="800.888" r="9.071"/>
<circle fill="none" stroke="#000000" stroke-miterlimit="10" cx="1706.568" cy="810.8" r="9.071"/>
<circle fill="none" stroke="#000000" stroke-miterlimit="10" cx="1686.021" cy="826.567" r="9.071"/>
<circle fill="none" stroke="#000000" stroke-miterlimit="10" cx="1670.254" cy="847.111" r="9.07"/>
<circle fill="none" stroke="#000000" stroke-miterlimit="10" cx="1660.343" cy="871.038" r="9.071"/>
<circle fill="none" stroke="#000000" stroke-miterlimit="10" cx="1656.962" cy="896.716" r="9.07"/>
<circle fill="none" stroke="#000000" stroke-miterlimit="10" cx="1660.343" cy="922.394" r="9.071"/>
<circle fill="none" stroke="#000000" stroke-miterlimit="10" cx="1670.255" cy="946.321" r="9.071"/>
<circle fill="none" stroke="#000000" stroke-miterlimit="10" cx="1686.021" cy="966.87" r="9.071"/>
<circle fill="none" stroke="#000000" stroke-miterlimit="10" cx="1706.569" cy="982.636" r="9.071"/>
<circle fill="none" stroke="#000000" stroke-miterlimit="10" cx="1730.497" cy="992.548" r="9.071"/>
<circle fill="none" stroke="#000000" stroke-miterlimit="10" cx="1756.173" cy="995.929" r="9.07"/>
<circle fill="none" stroke="#000000" stroke-miterlimit="10" cx="1781.852" cy="992.548" r="9.071"/>
<circle fill="none" stroke="#000000" stroke-miterlimit="10" cx="1805.78" cy="982.636" r="9.07"/>
<circle fill="none" stroke="#000000" stroke-miterlimit="10" cx="1805.779" cy="810.8" r="9.071"/>
<circle fill="none" stroke="#000000" stroke-miterlimit="10" cx="1781.852" cy="800.888" r="9.071"/>
<circle fill="none" stroke="#000000" stroke-miterlimit="10" cx="1970.138" cy="300.433" r="4.252"/>
<circle fill="none" stroke="#000000" stroke-miterlimit="10" cx="1885.097" cy="300.433" r="4.252"/>
<circle fill="none" stroke="#000000" stroke-miterlimit="10" cx="1885.097" cy="385.473" r="4.252"/>
<circle fill="none" stroke="#000000" stroke-miterlimit="10" cx="1970.138" cy="385.473" r="4.252"/>
<circle fill="none" stroke="#000000" stroke-miterlimit="10" cx="1927.616" cy="342.952" r="8.787"/>
<polyline fill="none" stroke="#000000" stroke-miterlimit="10" points="1622.903,613.263 1622.903,565.079 1608.725,565.079 
	1608.725,548.071 1622.903,548.071 1622.903,480.04 1608.725,480.04 1608.725,463.032 1622.903,463.032 1622.903,395 1608.725,395 
	1608.725,377.992 1622.903,377.992 1622.903,309.959 1608.725,309.959 1608.725,292.951 1622.903,292.951 1622.903,224.92 
	1608.725,224.92 1608.725,207.912 1622.903,207.912 1622.903,139.879 1608.725,139.879 1608.725,122.871 1622.903,122.871 
	1622.903,74.68 1722.116,74.68 1722.116,60.506 1842.593,60.506 1842.593,74.68 1955.979,74.68 1955.979,60.507 2076.452,60.507 
	2076.452,74.68 2175.66,74.68 2175.66,122.872 2189.834,122.872 2189.834,139.88 2175.66,139.88 2175.66,207.912 2189.834,207.912 
	2189.834,224.92 2175.66,224.92 2175.66,292.951 2189.834,292.951 2189.834,309.959 2175.66,309.959 2175.66,334.756 
	2158.512,334.758 2158.512,328.38 2138.669,328.379 2138.667,359.561 2158.512,359.562 2158.512,353.183 2175.662,353.184 
	2175.66,377.992 2189.834,377.992 2189.834,395 2175.66,395 2175.66,463.032 2189.834,463.032 2189.834,480.04 2175.66,480.04 
	2175.66,548.071 2189.834,548.071 2189.834,565.079 2175.66,565.079 2175.66,613.263 "/>
<polygon fill="none" stroke="#000000" stroke-miterlimit="10" points="1012.494,887.513 1029.643,887.513 1029.644,881.134 
	1049.487,881.136 1049.486,912.317 1029.644,912.315 1029.643,905.938 1012.496,905.94 1012.498,905.94 1012.498,930.737 
	998.318,930.737 998.318,947.745 1012.498,947.745 1012.498,1015.776 998.318,1015.776 998.318,1032.784 1012.498,1032.784 
	1012.498,1100.817 998.318,1100.817 998.318,1117.825 1012.498,1117.825 1012.498,1163.185 1012.498,1166.015 1012.498,1180.192 
	1111.708,1180.192 1111.708,1166.015 1232.185,1166.015 1232.185,1180.192 1345.57,1180.192 1345.57,1166.015 1466.044,1166.015 
	1466.044,1180.192 1565.255,1180.192 1565.255,1163.185 1565.251,1163.185 1565.25,1157.515 1565.25,1117.825 1579.423,1117.825 
	1579.423,1100.817 1565.25,1100.817 1565.25,1032.784 1579.423,1032.784 1579.423,1015.776 1565.25,1015.776 1565.25,947.745 
	1579.423,947.745 1579.423,930.737 1565.25,930.737 1565.25,862.704 1579.423,862.704 1579.423,845.697 1565.25,845.697 
	1565.25,777.669 1579.423,777.669 1579.423,760.661 1565.25,760.661 1565.25,692.628 1579.423,692.628 1579.423,675.62 
	1565.25,675.62 1565.25,635.939 1565.251,630.27 1565.255,630.27 1565.255,613.262 1466.044,613.262 1466.044,627.436 
	1345.57,627.436 1345.57,613.262 1232.185,613.262 1232.185,627.436 1111.708,627.436 1111.708,613.262 1012.498,613.262 
	1012.498,627.436 1012.498,630.27 1012.498,675.62 998.318,675.62 998.318,692.627 1012.498,692.627 1012.498,760.66 
	998.318,760.66 998.318,777.668 1012.498,777.668 1012.498,845.697 998.318,845.697 998.318,862.704 1012.498,862.704 
	1012.498,887.513 "/>
<circle fill="none" stroke="#000000" stroke-miterlimit="10" cx="1480.217" cy="724.193" r="35.433"/>
<circle fill="none" stroke="#000000" stroke-miterlimit="10" cx="1522.738" cy="681.673" r="4.252"/>
<circle fill="none" stroke="#000000" stroke-miterlimit="10" cx="1522.738" cy="766.714" r="4.252"/>
<circle fill="none" stroke="#000000" stroke-miterlimit="10" cx="1437.698" cy="766.714" r="4.252"/>
<circle fill="none" stroke="#000000" stroke-miterlimit="10" cx="1437.698" cy="681.673" r="4.252"/>
<g>
	<path fill="none" stroke="#BE762A" stroke-miterlimit="10" d="M1410.702,701.487l-8.647-3.142l8.647-3.142l-8.647,3.142
		L1410.702,701.487z"/>
	<path fill="none" stroke="#BE762A" stroke-miterlimit="10" d="M1406.444,704.384c3.311,0,4.485,1.715,4.485,3.814
		c0,2.098-1.175,3.812-4.485,3.812s-4.462-1.715-4.462-3.812C1401.982,706.099,1403.134,704.384,1406.444,704.384z
		 M1406.444,704.384c3.311,0,4.485,1.715,4.485,3.814c0,2.098-1.175,3.812-4.485,3.812s-4.462-1.715-4.462-3.812
		C1401.982,706.099,1403.134,704.384,1406.444,704.384z"/>
	<path fill="none" stroke="#BE762A" stroke-miterlimit="10" d="M1402.055,721.323v-5.049h8.647h-8.647V721.323z"/>
	<path fill="none" stroke="#BE762A" stroke-miterlimit="10" d="M1404.801,730.3c-1.438,0-2.746-0.888-2.734-2.998
		c0.036-2.111,1.212-3.082,2.734-3.082h5.913h-5.913c-1.522,0-2.698,0.971-2.734,3.082
		C1402.055,729.412,1403.362,730.3,1404.801,730.3c1.439,0,5.913,0,5.913,0S1406.24,730.3,1404.801,730.3z"/>
	<path fill="none" stroke="#BE762A" stroke-miterlimit="10" d="M1410.702,734.479l-8.647,3.717l8.647,3.73h-8.647h8.647l-8.647-3.73
		L1410.702,734.479h-8.647H1410.702z"/>
	<path fill="none" stroke="#BE762A" stroke-miterlimit="10" d="M1402.055,753.184v-5.589h8.6v5.589v-5.589h-8.6V753.184z
		 M1406.48,752.704v-5.109V752.704z"/>
</g>
<circle fill="none" stroke="#000000" stroke-miterlimit="10" cx="1086.674" cy="754.204" r="4.252"/>
<circle fill="none" stroke="#000000" stroke-miterlimit="10" cx="1153.748" cy="699.093" r="4.252"/>
<circle fill="none" stroke="#000000" stroke-miterlimit="10" cx="1119.504" cy="726.648" r="33.307"/>
<g>
	<path fill="none" stroke="#BE762A" stroke-miterlimit="10" d="M1046.739,695.834h8.647v3.119c0,2.854-2.398,3.201-4.198,3.273
		c-1.799,0.072-4.449-0.539-4.449-3.273V695.834z M1046.739,695.834h8.647v3.119c0,2.854-2.398,3.201-4.198,3.273
		c-1.799,0.072-4.449-0.539-4.449-3.273V695.834z"/>
	<path fill="none" stroke="#BE762A" stroke-miterlimit="10" d="M1049.641,712.607c-2.062-0.385-2.998-1.633-2.998-3.6
		c0-2.387,1.355-3.74,4.426-3.74c3.058,0,4.425,1.354,4.425,3.74c0,1.703-0.707,2.879-2.242,3.406
		c1.535-0.527,2.242-1.703,2.242-3.406c0-2.387-1.367-3.74-4.425-3.74c-3.07,0-4.426,1.354-4.426,3.74
		C1046.643,710.975,1047.579,712.223,1049.641,712.607z"/>
	<path fill="none" stroke="#BE762A" stroke-miterlimit="10" d="M1055.386,722.822l-4.294-0.959c0.576,0.684,0.924,1.115,0.924,2.303
		c0,1.186-0.804,2.529-2.482,2.529c-0.732,0-2.831-0.395-2.831-2.555c0-2.146,1.235-2.434,1.943-2.578
		c-0.708,0.145-1.943,0.432-1.943,2.578c0,2.16,2.099,2.555,2.831,2.555c1.679,0,2.482-1.344,2.482-2.529
		c0-1.188-0.348-1.619-0.924-2.303L1055.386,722.822v3.598V722.822z"/>
	<path fill="none" stroke="#BE762A" stroke-miterlimit="10" d="M1055.386,735.814l-8.647-3.143l8.647-3.141l-8.647,3.141
		L1055.386,735.814z"/>
	<path fill="none" stroke="#BE762A" stroke-miterlimit="10" d="M1046.739,746.006h8.647H1046.739z"/>
	<path fill="none" stroke="#BE762A" stroke-miterlimit="10" d="M1046.739,751.297h8.647l-8.647,6.166h8.647h-8.647l8.647-6.166
		H1046.739z"/>
</g>
<path fill="none" stroke="#000000" stroke-miterlimit="10" d="M1117.064,826.229v7.767c1.417,2.781,4.302,4.691,7.639,4.691
	c4.735,0,8.574-3.839,8.574-8.575s-3.839-8.574-8.574-8.574C1121.366,821.538,1118.481,823.447,1117.064,826.229z"/>
<path fill="none" stroke="#000000" stroke-miterlimit="10" d="M1117.064,939.612v7.768c1.417,2.781,4.302,4.691,7.639,4.691
	c4.735,0,8.574-3.84,8.574-8.576c0-4.734-3.839-8.574-8.574-8.574C1121.366,934.921,1118.481,936.831,1117.064,939.612z"/>
<path fill="none" stroke="#000000" stroke-miterlimit="10" d="M1117.064,1052.999v7.768c1.417,2.781,4.302,4.691,7.639,4.691
	c4.735,0,8.574-3.84,8.574-8.576c0-4.734-3.839-8.574-8.574-8.574C1121.366,1048.308,1118.481,1050.218,1117.064,1052.999z"/>
<g>
	<path fill="none" stroke="#BE762A" stroke-miterlimit="10" d="M1076.658,810.002h7.206v2.299c0,1.85-0.88,2.27-1.849,2.318
		c-0.97,0.041-1.979-0.479-1.979-2.129v-2.488v2.488c0,1.619,1.01,2.17,1.979,2.129c0.969-0.049,1.849-0.488,1.849-2.318v-2.299
		H1076.658z"/>
	<path fill="none" stroke="#BE762A" stroke-miterlimit="10" d="M1080.316,817.104c2.758,0,3.737,1.43,3.737,3.179
		s-0.979,3.178-3.737,3.178c-2.759,0-3.718-1.429-3.718-3.178S1077.557,817.104,1080.316,817.104z M1080.316,817.104
		c2.758,0,3.737,1.43,3.737,3.179s-0.979,3.178-3.737,3.178c-2.759,0-3.718-1.429-3.718-3.178S1077.557,817.104,1080.316,817.104z"
		/>
	<path fill="none" stroke="#BE762A" stroke-miterlimit="10" d="M1076.658,827.832l7.206,2.289l-7.206,2.288l7.206,1.9l-7.206-1.9
		l7.206-2.288L1076.658,827.832l7.206-1.898L1076.658,827.832z"/>
	<path fill="none" stroke="#BE762A" stroke-miterlimit="10" d="M1076.658,842.618v-4.655h7.166v4.655v-4.655h-7.166V842.618z
		 M1080.345,842.22v-4.257V842.22z"/>
	<path fill="none" stroke="#BE762A" stroke-miterlimit="10" d="M1076.658,846.141h7.206v2.628c0,1.838-0.63,2.229-1.6,2.277
		c-0.969,0.041-1.929-0.449-1.929-2.078v-2.828v2.828c0,1.6,0.96,2.119,1.929,2.078c0.97-0.048,1.6-0.478,1.6-2.277v-2.628H1076.658
		z M1076.658,851.267c0.14-0.201,0.42-0.25,0.54-0.25l1.818-0.179c0.78-0.061,1.319-0.619,1.319-1.73c0,1.111-0.539,1.67-1.319,1.73
		l-1.818,0.179C1077.078,851.017,1076.797,851.065,1076.658,851.267z"/>
	<path fill="none" stroke="#BE762A" stroke-miterlimit="10" d="M1068.316,807.254c2.758,0,3.737,1.428,3.737,3.178
		c0,1.748-0.979,3.178-3.737,3.178c-2.759,0-3.718-1.43-3.718-3.178C1064.598,808.682,1065.557,807.254,1068.316,807.254z
		 M1068.316,807.254c2.758,0,3.737,1.428,3.737,3.178c0,1.748-0.979,3.178-3.737,3.178c-2.759,0-3.718-1.43-3.718-3.178
		C1064.598,808.682,1065.557,807.254,1068.316,807.254z"/>
	<path fill="none" stroke="#BE762A" stroke-miterlimit="10" d="M1071.864,817.162l-7.206,5.138h7.206h-7.206L1071.864,817.162
		h-7.206H1071.864z"/>
	<path fill="none" stroke="#BE762A" stroke-miterlimit="10" d="M1064.558,825.894l7.376,2.448L1064.558,825.894z"/>
	<path fill="none" stroke="#BE762A" stroke-miterlimit="10" d="M1068.316,830.613c2.758,0,3.737,1.43,3.737,3.178
		c0,1.75-0.979,3.177-3.737,3.177c-2.759,0-3.718-1.427-3.718-3.177C1064.598,832.043,1065.557,830.613,1068.316,830.613z
		 M1068.316,830.613c2.758,0,3.737,1.43,3.737,3.178c0,1.75-0.979,3.177-3.737,3.177c-2.759,0-3.718-1.427-3.718-3.177
		C1064.598,832.043,1065.557,830.613,1068.316,830.613z"/>
	<path fill="none" stroke="#BE762A" stroke-miterlimit="10" d="M1064.658,840.521h7.206v4.468v-4.468H1064.658z M1068.366,844.579
		v-4.058V844.579z"/>
	<path fill="none" stroke="#BE762A" stroke-miterlimit="10" d="M1064.658,848.5h7.206v4.466V848.5H1064.658z M1068.366,852.558
		V848.5V852.558z"/>
</g>
<g>
	<path fill="none" stroke="#BE762A" stroke-miterlimit="10" d="M1078.98,920.964c0-1.988,1.13-3.119,3.688-3.119
		c2.548,0,3.688,1.131,3.688,3.119c0,1.418-0.59,2.398-1.869,2.838c1.279-0.439,1.869-1.42,1.869-2.838
		c0-1.988-1.14-3.119-3.688-3.119C1080.11,917.845,1078.98,918.976,1078.98,920.964c0,1.639,0.779,2.678,2.499,2.998
		C1079.759,923.642,1078.98,922.603,1078.98,920.964z"/>
	<path fill="none" stroke="#BE762A" stroke-miterlimit="10" d="M1079.06,926.425l7.206,2.859l-7.206,2.867l7.206-2.867
		L1079.06,926.425z M1081.329,927.325v3.918V927.325z"/>
	<path fill="none" stroke="#BE762A" stroke-miterlimit="10" d="M1079.06,935.675h7.206l-7.206,3.098l7.206,3.107h-7.206h7.206
		l-7.206-3.107l7.206-3.098H1079.06z"/>
	<path fill="none" stroke="#BE762A" stroke-miterlimit="10" d="M1079.06,951.263v-4.658h7.166v4.658v-4.658h-7.166V951.263z
		 M1082.748,950.862v-4.258V950.862z"/>
	<path fill="none" stroke="#BE762A" stroke-miterlimit="10" d="M1079.06,954.784h7.206v2.629c0,1.838-0.63,2.229-1.6,2.277
		c-0.969,0.041-1.929-0.449-1.929-2.078v-2.828v2.828c0,1.6,0.96,2.119,1.929,2.078c0.97-0.049,1.6-0.479,1.6-2.277v-2.629H1079.06z
		 M1079.06,959.911c0.14-0.199,0.42-0.25,0.54-0.25l1.818-0.18c0.78-0.061,1.319-0.619,1.319-1.729c0,1.109-0.539,1.668-1.319,1.729
		l-1.818,0.18C1079.48,959.661,1079.2,959.712,1079.06,959.911z"/>
	<path fill="none" stroke="#BE762A" stroke-miterlimit="10" d="M1079.06,962.374l7.206,2.859l-7.206,2.867l7.206-2.867
		L1079.06,962.374z M1081.329,963.274v3.918V963.274z"/>
	<path fill="none" stroke="#BE762A" stroke-miterlimit="10" d="M1067.06,913.896h7.206v2.629c0,1.838-0.63,2.229-1.6,2.277
		c-0.969,0.041-1.929-0.449-1.929-2.078v-2.828v2.828c0,1.6,0.96,2.119,1.929,2.078c0.97-0.049,1.6-0.479,1.6-2.277v-2.629H1067.06z
		 M1067.06,919.022c0.14-0.201,0.42-0.25,0.54-0.25l1.818-0.18c0.78-0.061,1.319-0.619,1.319-1.73c0,1.111-0.539,1.67-1.319,1.73
		l-1.818,0.18C1067.48,918.772,1067.2,918.821,1067.06,919.022z"/>
	<path fill="none" stroke="#BE762A" stroke-miterlimit="10" d="M1074.276,926.552c0,0-3.728,0-4.927,0s-2.289-0.738-2.279-2.498
		c0.03-1.758,1.01-2.568,2.279-2.568h4.927h-4.927c-1.27,0-2.249,0.811-2.279,2.568c-0.01,1.76,1.08,2.498,2.279,2.498
		S1074.276,926.552,1074.276,926.552z"/>
	<path fill="none" stroke="#BE762A" stroke-miterlimit="10" d="M1067.06,930.034h7.206l-7.206,5.137h7.206h-7.206l7.206-5.137
		H1067.06z"/>
	<path fill="none" stroke="#BE762A" stroke-miterlimit="10" d="M1066.96,938.765l7.376,2.449L1066.96,938.765z"/>
	<path fill="none" stroke="#BE762A" stroke-miterlimit="10" d="M1069.239,943.485c-1.599,0-2.238,1.219-2.238,2.648
		c0,1.449,0.909,2.357,1.799,2.389c0.879,0.029,1.579-0.42,1.769-1.311l0.53-2.447c0.149-0.689,0.55-1.1,1.489-1.1
		s1.749,0.789,1.749,2.229s-0.68,2.488-1.869,2.449c1.189,0.039,1.869-1.01,1.869-2.449s-0.81-2.229-1.749-2.229
		s-1.33,0.389-1.489,1.1l-0.53,2.447c-0.189,0.91-0.89,1.34-1.769,1.311c-0.89-0.031-1.799-0.939-1.799-2.389
		C1067,944.704,1067.64,943.485,1069.239,943.485z"/>
	<path fill="none" stroke="#BE762A" stroke-miterlimit="10" d="M1067.06,953.544h7.206v-2.588v5.195v-2.607H1067.06z"/>
	<path fill="none" stroke="#BE762A" stroke-miterlimit="10" d="M1070.718,958.565c2.758,0,3.737,1.43,3.737,3.178
		c0,1.75-0.979,3.178-3.737,3.178c-2.759,0-3.718-1.428-3.718-3.178C1067,959.995,1067.959,958.565,1070.718,958.565z
		 M1070.718,958.565c2.758,0,3.737,1.43,3.737,3.178c0,1.75-0.979,3.178-3.737,3.178c-2.759,0-3.718-1.428-3.718-3.178
		C1067,959.995,1067.959,958.565,1070.718,958.565z"/>
	<path fill="none" stroke="#BE762A" stroke-miterlimit="10" d="M1067.06,968.474h7.206v2.299c0,1.85-0.88,2.27-1.849,2.318
		c-0.97,0.041-1.979-0.479-1.979-2.129v-2.488v2.488c0,1.619,1.01,2.17,1.979,2.129c0.969-0.049,1.849-0.488,1.849-2.318v-2.299
		H1067.06z"/>
</g>
<g>
	<path fill="none" stroke="#BE762A" stroke-miterlimit="10" d="M1076.367,1011.606h7.206H1076.367z"/>
	<path fill="none" stroke="#BE762A" stroke-miterlimit="10" d="M1076.367,1020.224v-4.207h7.206h-7.206V1020.224z"/>
	<path fill="none" stroke="#BE762A" stroke-miterlimit="10" d="M1076.367,1027.925v-4.209h7.206h-7.206V1027.925z"/>
	<path fill="none" stroke="#BE762A" stroke-miterlimit="10" d="M1078.656,1035.403c-1.199,0-2.289-0.738-2.279-2.498
		c0.03-1.76,1.01-2.568,2.279-2.568h4.927h-4.927c-1.27,0-2.249,0.809-2.279,2.568
		C1076.367,1034.665,1077.457,1035.403,1078.656,1035.403s4.927,0,4.927,0S1079.855,1035.403,1078.656,1035.403z"/>
	<path fill="none" stroke="#BE762A" stroke-miterlimit="10" d="M1076.367,1038.886h7.206l-7.206,3.1l7.206,3.107h-7.206h7.206
		l-7.206-3.107l7.206-3.1H1076.367z"/>
	<path fill="none" stroke="#BE762A" stroke-miterlimit="10" d="M1076.367,1049.815h7.206H1076.367z"/>
	<path fill="none" stroke="#BE762A" stroke-miterlimit="10" d="M1076.367,1054.226h7.206l-7.206,5.137h7.206h-7.206l7.206-5.137
		H1076.367z"/>
	<path fill="none" stroke="#BE762A" stroke-miterlimit="10" d="M1076.367,1062.956l7.206,2.859l-7.206,2.867l7.206-2.867
		L1076.367,1062.956z M1078.635,1063.856v3.918V1063.856z"/>
	<path fill="none" stroke="#BE762A" stroke-miterlimit="10" d="M1076.367,1073.714h7.206v-2.588v5.197v-2.609H1076.367z"/>
	<path fill="none" stroke="#BE762A" stroke-miterlimit="10" d="M1076.367,1079.815h7.206H1076.367z"/>
	<path fill="none" stroke="#BE762A" stroke-miterlimit="10" d="M1080.025,1083.146c2.758,0,3.737,1.43,3.737,3.18
		c0,1.748-0.979,3.178-3.737,3.178c-2.759,0-3.718-1.43-3.718-3.178C1076.307,1084.575,1077.266,1083.146,1080.025,1083.146z
		 M1080.025,1083.146c2.758,0,3.737,1.43,3.737,3.18c0,1.748-0.979,3.178-3.737,3.178c-2.759,0-3.718-1.43-3.718-3.178
		C1076.307,1084.575,1077.266,1083.146,1080.025,1083.146z"/>
	<path fill="none" stroke="#BE762A" stroke-miterlimit="10" d="M1076.367,1093.056h7.206l-7.206,5.137h7.206h-7.206l7.206-5.137
		H1076.367z"/>
	<path fill="none" stroke="#BE762A" stroke-miterlimit="10" d="M1068.025,1032.081c2.758,0,3.737,1.43,3.737,3.18
		c0,1.748-0.979,3.178-3.737,3.178c-2.759,0-3.718-1.43-3.718-3.178C1064.307,1033.511,1065.266,1032.081,1068.025,1032.081z
		 M1068.025,1032.081c2.758,0,3.737,1.43,3.737,3.18c0,1.748-0.979,3.178-3.737,3.178c-2.759,0-3.718-1.43-3.718-3.178
		C1064.307,1033.511,1065.266,1032.081,1068.025,1032.081z"/>
	<path fill="none" stroke="#BE762A" stroke-miterlimit="10" d="M1071.573,1041.991l-7.206,5.137h7.206h-7.206L1071.573,1041.991
		h-7.206H1071.573z"/>
	<path fill="none" stroke="#BE762A" stroke-miterlimit="10" d="M1064.267,1050.722l7.376,2.447L1064.267,1050.722z"/>
	<path fill="none" stroke="#BE762A" stroke-miterlimit="10" d="M1068.025,1055.442c2.758,0,3.737,1.428,3.737,3.178
		c0,1.748-0.979,3.178-3.737,3.178c-2.759,0-3.718-1.43-3.718-3.178C1064.307,1056.87,1065.266,1055.442,1068.025,1055.442z
		 M1068.025,1055.442c2.758,0,3.737,1.428,3.737,3.178c0,1.748-0.979,3.178-3.737,3.178c-2.759,0-3.718-1.43-3.718-3.178
		C1064.307,1056.87,1065.266,1055.442,1068.025,1055.442z"/>
	<path fill="none" stroke="#BE762A" stroke-miterlimit="10" d="M1064.367,1065.351h7.206v4.467v-4.467H1064.367z M1068.075,1069.409
		v-4.059V1069.409z"/>
	<path fill="none" stroke="#BE762A" stroke-miterlimit="10" d="M1064.367,1073.331h7.206v4.467v-4.467H1064.367z M1068.075,1077.388
		v-4.057V1077.388z"/>
</g>
<g>
	<path fill="none" stroke="#BE762A" stroke-miterlimit="10" d="M1168.397,936.532c2.758,0,3.737,1.43,3.737,3.178
		c0,1.75-0.979,3.18-3.737,3.18c-2.759,0-3.718-1.43-3.718-3.18C1164.68,937.962,1165.639,936.532,1168.397,936.532z
		 M1168.397,936.532c2.758,0,3.737,1.43,3.737,3.178c0,1.75-0.979,3.18-3.737,3.18c-2.759,0-3.718-1.43-3.718-3.18
		C1164.68,937.962,1165.639,936.532,1168.397,936.532z"/>
	<path fill="none" stroke="#BE762A" stroke-miterlimit="10" d="M1164.739,946.442h7.206l-7.206,5.137h7.206h-7.206l7.206-5.137
		H1164.739z"/>
</g>
<line fill="none" stroke="#BE762A" stroke-miterlimit="10" x1="1159.414" y1="830.613" x2="1159.414" y2="1056.794"/>
<line fill="none" stroke="#BE762A" stroke-miterlimit="10" x1="1153.745" y1="830.613" x2="1159.414" y2="830.613"/>
<line fill="none" stroke="#BE762A" stroke-miterlimit="10" x1="1153.745" y1="943.997" x2="1159.414" y2="943.997"/>
<line fill="none" stroke="#BE762A" stroke-miterlimit="10" x1="1153.745" y1="1057.384" x2="1159.414" y2="1057.384"/>
<g>
	<path fill="none" stroke="#BE762A" stroke-miterlimit="10" d="M1190.12,693.533v-5.588h8.6v5.588v-5.588h-8.6V693.533z
		 M1194.546,693.055v-5.109V693.055z"/>
	<path fill="none" stroke="#BE762A" stroke-miterlimit="10" d="M1198.769,699.572v3.129v-6.236V699.572h-8.648H1198.769z"/>
	<path fill="none" stroke="#BE762A" stroke-miterlimit="10" d="M1198.755,706.893h-3.85v6.105h3.85h-8.635h4.785v-6.105h-4.785
		H1198.755z"/>
	<path fill="none" stroke="#BE762A" stroke-miterlimit="10" d="M1190.12,724.193v-5.588h8.6v5.588v-5.588h-8.6V724.193z
		 M1194.546,723.713v-5.107V723.713z"/>
	<path fill="none" stroke="#BE762A" stroke-miterlimit="10" d="M1190.12,728.42h8.648v3.154c0,2.207-0.756,2.676-1.92,2.734
		c-1.164,0.049-2.314-0.539-2.314-2.494v-3.395v3.395c0,1.92,1.15,2.543,2.314,2.494c1.164-0.059,1.92-0.574,1.92-2.734v-3.154
		H1190.12z M1190.12,734.572c0.168-0.238,0.504-0.299,0.648-0.299l2.182-0.217c0.936-0.07,1.584-0.742,1.584-2.074
		c0,1.332-0.648,2.004-1.584,2.074l-2.182,0.217C1190.624,734.273,1190.288,734.334,1190.12,734.572z"/>
	<path fill="none" stroke="#BE762A" stroke-miterlimit="10" d="M1198.769,738.824l-8.648,6.164h8.648h-8.648L1198.769,738.824
		h-8.648H1198.769z"/>
	<path fill="none" stroke="#BE762A" stroke-miterlimit="10" d="M1190.12,756.186v-5.59h8.6v5.59v-5.59h-8.6V756.186z
		 M1194.546,755.705v-5.109V755.705z"/>
	<path fill="none" stroke="#BE762A" stroke-miterlimit="10" d="M1198.769,762.223v3.131v-6.236V762.223h-8.648H1198.769z"/>
</g>
<circle fill="none" stroke="#000000" stroke-miterlimit="10" cx="1218.013" cy="387.51" r="4.252"/>
<circle fill="none" stroke="#000000" stroke-miterlimit="10" cx="1303.052" cy="387.51" r="4.252"/>
<circle fill="none" stroke="#000000" stroke-miterlimit="10" cx="1303.052" cy="302.47" r="4.252"/>
<circle fill="none" stroke="#000000" stroke-miterlimit="10" cx="1218.013" cy="302.47" r="4.252"/>
<circle fill="none" stroke="#000000" stroke-miterlimit="10" cx="1260.534" cy="344.99" r="8.788"/>
<polyline fill="none" stroke="#000000" stroke-miterlimit="10" points="1012.488,613.263 1012.488,565.07 998.315,565.07 
	998.315,548.062 1012.488,548.062 1012.488,480.03 998.315,480.03 998.315,463.022 1012.488,463.022 1012.488,394.991 
	998.315,394.991 998.315,377.983 1012.488,377.983 1012.489,353.187 1029.637,353.185 1029.638,359.562 1049.48,359.563 
	1049.481,328.382 1029.638,328.381 1029.637,334.76 1012.487,334.759 1012.488,309.95 998.315,309.95 998.315,292.942 
	1012.488,292.942 1012.488,224.91 998.315,224.91 998.315,207.902 1012.488,207.902 1012.488,139.871 998.315,139.871 
	998.315,122.863 1012.488,122.863 1012.488,74.68 1111.697,74.68 1111.697,60.507 1232.171,60.507 1232.171,74.68 1345.557,74.68 
	1345.557,60.507 1466.033,60.507 1466.033,74.68 1565.246,74.68 1565.246,122.863 1579.425,122.863 1579.425,139.871 
	1565.246,139.871 1565.246,207.902 1579.425,207.902 1579.425,224.91 1565.246,224.91 1565.246,292.942 1579.425,292.942 
	1579.425,309.95 1565.246,309.95 1565.246,377.983 1579.425,377.983 1579.425,394.991 1565.246,394.991 1565.246,463.022 
	1579.425,463.022 1579.425,480.03 1565.246,480.03 1565.246,548.063 1579.425,548.063 1579.425,565.071 1565.246,565.071 
	1565.246,613.263 "/>
<rect x="394.193" y="388.852" fill="none" stroke="#000000" stroke-miterlimit="10" width="14.599" height="17.008"/>
<rect x="394.193" y="473.893" fill="none" stroke="#000000" stroke-miterlimit="10" width="14.599" height="17.008"/>
<rect x="394.193" y="558.932" fill="none" stroke="#000000" stroke-miterlimit="10" width="14.599" height="17.008"/>
<rect x="394.193" y="303.813" fill="none" stroke="#000000" stroke-miterlimit="10" width="14.599" height="17.008"/>
<rect x="394.193" y="218.772" fill="none" stroke="#000000" stroke-miterlimit="10" width="14.599" height="17.008"/>
<rect x="394.193" y="133.733" fill="none" stroke="#000000" stroke-miterlimit="10" width="14.599" height="17.008"/>
<rect x="946.953" y="388.852" fill="none" stroke="#000000" stroke-miterlimit="10" width="14.598" height="17.008"/>
<rect x="946.953" y="473.893" fill="none" stroke="#000000" stroke-miterlimit="10" width="14.598" height="17.008"/>
<rect x="946.953" y="558.932" fill="none" stroke="#000000" stroke-miterlimit="10" width="14.598" height="17.008"/>
<rect x="946.953" y="303.813" fill="none" stroke="#000000" stroke-miterlimit="10" width="14.598" height="17.008"/>
<rect x="946.953" y="218.772" fill="none" stroke="#000000" stroke-miterlimit="10" width="14.598" height="17.008"/>
<rect x="946.953" y="133.733" fill="none" stroke="#000000" stroke-miterlimit="10" width="14.598" height="17.008"/>
<rect x="626.845" y="71.161" fill="none" stroke="#000000" stroke-miterlimit="10" width="17.008" height="14.599"/>
<rect x="541.806" y="71.161" fill="none" stroke="#000000" stroke-miterlimit="10" width="17.008" height="14.599"/>
<rect x="456.765" y="71.161" fill="none" stroke="#000000" stroke-miterlimit="10" width="17.008" height="14.599"/>
<rect x="711.886" y="71.161" fill="none" stroke="#000000" stroke-miterlimit="10" width="17.008" height="14.599"/>
<rect x="796.925" y="71.161" fill="none" stroke="#000000" stroke-miterlimit="10" width="17.008" height="14.599"/>
<rect x="881.966" y="71.161" fill="none" stroke="#000000" stroke-miterlimit="10" width="17.008" height="14.599"/>
<rect x="626.845" y="623.919" fill="none" stroke="#000000" stroke-miterlimit="10" width="17.008" height="14.599"/>
<rect x="541.805" y="623.919" fill="none" stroke="#000000" stroke-miterlimit="10" width="17.008" height="14.599"/>
<rect x="456.765" y="623.919" fill="none" stroke="#000000" stroke-miterlimit="10" width="17.008" height="14.599"/>
<rect x="711.885" y="623.919" fill="none" stroke="#000000" stroke-miterlimit="10" width="17.008" height="14.599"/>
<rect x="796.925" y="623.919" fill="none" stroke="#000000" stroke-miterlimit="10" width="17.008" height="14.599"/>
<rect x="881.965" y="623.919" fill="none" stroke="#000000" stroke-miterlimit="10" width="17.008" height="14.599"/>
<path fill="none" stroke="#000000" stroke-miterlimit="10" d="M961.334,62.87c4.696,0,8.504,3.807,8.504,8.504v566.929
	c0,4.696-3.808,8.504-8.504,8.504h-566.93c-4.696,0-8.504-3.808-8.504-8.504V71.374c0-4.697,3.808-8.504,8.504-8.504H961.334z"/>
<circle fill="none" stroke="#000000" stroke-miterlimit="10" cx="428.423" cy="105.394" r="8.504"/>
<circle fill="none" stroke="#000000" stroke-miterlimit="10" cx="428.423" cy="604.296" r="8.504"/>
<circle fill="none" stroke="#000000" stroke-miterlimit="10" cx="927.326" cy="105.394" r="8.504"/>
<circle fill="none" stroke="#000000" stroke-miterlimit="10" cx="927.326" cy="604.296" r="8.504"/>
<circle fill="none" stroke="#000000" stroke-miterlimit="10" cx="604.698" cy="281.676" r="8.504"/>
<circle fill="none" stroke="#000000" stroke-miterlimit="10" cx="604.698" cy="427.997" r="8.504"/>
<circle fill="none" stroke="#000000" stroke-miterlimit="10" cx="751.02" cy="427.997" r="8.504"/>
<circle fill="none" stroke="#000000" stroke-miterlimit="10" cx="751.02" cy="281.675" r="8.504"/>
<circle fill="none" stroke="#000000" stroke-miterlimit="10" cx="677.859" cy="354.839" r="9.921"/>
<circle fill="none" stroke="#000000" stroke-miterlimit="10" cx="677.859" cy="383.185" r="9.921"/>
<circle fill="none" stroke="#000000" stroke-miterlimit="10" cx="649.512" cy="397.359" r="9.921"/>
<circle fill="none" stroke="#000000" stroke-miterlimit="10" cx="649.512" cy="425.707" r="9.921"/>
<circle fill="none" stroke="#000000" stroke-miterlimit="10" cx="649.512" cy="369.013" r="9.921"/>
<circle fill="none" stroke="#000000" stroke-miterlimit="10" cx="649.512" cy="340.666" r="9.921"/>
<circle fill="none" stroke="#000000" stroke-miterlimit="10" cx="649.512" cy="312.32" r="9.921"/>
<circle fill="none" stroke="#000000" stroke-miterlimit="10" cx="649.512" cy="283.973" r="9.921"/>
<circle fill="none" stroke="#000000" stroke-miterlimit="10" cx="706.206" cy="397.359" r="9.921"/>
<circle fill="none" stroke="#000000" stroke-miterlimit="10" cx="706.206" cy="425.707" r="9.921"/>
<circle fill="none" stroke="#000000" stroke-miterlimit="10" cx="706.206" cy="369.013" r="9.921"/>
<circle fill="none" stroke="#000000" stroke-miterlimit="10" cx="706.206" cy="340.666" r="9.921"/>
<circle fill="none" stroke="#000000" stroke-miterlimit="10" cx="706.206" cy="312.32" r="9.921"/>
<circle fill="none" stroke="#000000" stroke-miterlimit="10" cx="706.206" cy="283.973" r="9.921"/>
<circle fill="none" stroke="#000000" stroke-miterlimit="10" cx="677.859" cy="411.532" r="9.921"/>
<circle fill="none" stroke="#000000" stroke-miterlimit="10" cx="677.859" cy="326.492" r="9.921"/>
<circle fill="none" stroke="#000000" stroke-miterlimit="10" cx="677.859" cy="298.146" r="9.921"/>
<circle fill="none" stroke="#000000" stroke-miterlimit="10" cx="734.552" cy="354.839" r="9.921"/>
<circle fill="none" stroke="#000000" stroke-miterlimit="10" cx="734.552" cy="383.185" r="9.921"/>
<circle fill="none" stroke="#000000" stroke-miterlimit="10" cx="734.552" cy="326.492" r="9.921"/>
<circle fill="none" stroke="#000000" stroke-miterlimit="10" cx="621.166" cy="354.839" r="9.921"/>
<circle fill="none" stroke="#000000" stroke-miterlimit="10" cx="621.166" cy="383.185" r="9.921"/>
<circle fill="none" stroke="#000000" stroke-miterlimit="10" cx="621.166" cy="326.492" r="9.921"/>
<polygon fill="none" stroke="#000000" stroke-miterlimit="10" points="294.046,152.164 285.863,137.991 294.046,123.817 
	310.413,123.817 318.596,137.991 310.413,152.164 "/>
<circle fill="none" stroke="#000000" stroke-miterlimit="10" cx="259.709" cy="180.511" r="4.252"/>
<circle fill="none" stroke="#000000" stroke-miterlimit="10" cx="344.75" cy="180.511" r="4.252"/>
<circle fill="none" stroke="#000000" stroke-miterlimit="10" cx="344.75" cy="95.471" r="4.252"/>
<circle fill="none" stroke="#000000" stroke-miterlimit="10" cx="259.709" cy="95.471" r="4.252"/>
<circle fill="none" stroke="#000000" stroke-miterlimit="10" cx="302.23" cy="137.987" r="77.953"/>
<polygon fill="none" stroke="#000000" stroke-miterlimit="10" points="294.046,322.244 285.863,308.071 294.046,293.898 
	310.413,293.898 318.596,308.071 310.413,322.244 "/>
<circle fill="none" stroke="#000000" stroke-miterlimit="10" cx="259.709" cy="350.591" r="4.252"/>
<circle fill="none" stroke="#000000" stroke-miterlimit="10" cx="344.75" cy="350.591" r="4.252"/>
<circle fill="none" stroke="#000000" stroke-miterlimit="10" cx="344.75" cy="265.551" r="4.252"/>
<circle fill="none" stroke="#000000" stroke-miterlimit="10" cx="259.709" cy="265.551" r="4.252"/>
<circle fill="none" stroke="#000000" stroke-miterlimit="10" cx="302.23" cy="308.067" r="77.953"/>
<circle fill="none" stroke="#000000" stroke-miterlimit="10" cx="89.629" cy="180.511" r="4.252"/>
<circle fill="none" stroke="#000000" stroke-miterlimit="10" cx="174.669" cy="180.511" r="4.252"/>
<circle fill="none" stroke="#000000" stroke-miterlimit="10" cx="174.669" cy="95.471" r="4.252"/>
<circle fill="none" stroke="#000000" stroke-miterlimit="10" cx="89.629" cy="95.471" r="4.252"/>
<circle fill="none" stroke="#000000" stroke-miterlimit="10" cx="132.15" cy="137.987" r="77.953"/>
<circle fill="none" stroke="#000000" stroke-miterlimit="10" cx="132.15" cy="137.988" r="8.646"/>
<circle fill="none" stroke="#000000" stroke-miterlimit="10" cx="259.708" cy="523.505" r="4.252"/>
<circle fill="none" stroke="#000000" stroke-miterlimit="10" cx="344.748" cy="523.505" r="4.252"/>
<circle fill="none" stroke="#000000" stroke-miterlimit="10" cx="344.748" cy="438.468" r="4.252"/>
<circle fill="none" stroke="#000000" stroke-miterlimit="10" cx="259.708" cy="438.468" r="4.252"/>
<path fill="none" stroke="#000000" stroke-miterlimit="10" d="M380.181,480.98c0,43.053-34.9,77.953-77.953,77.953
	s-77.953-34.9-77.953-77.953c0-43.049,34.9-77.949,77.953-77.949S380.181,437.932,380.181,480.98z"/>
<circle fill="none" stroke="#000000" stroke-miterlimit="10" cx="302.228" cy="480.981" r="8.646"/>
<circle fill="none" stroke="#000000" stroke-miterlimit="10" cx="259.708" cy="693.583" r="4.252"/>
<circle fill="none" stroke="#000000" stroke-miterlimit="10" cx="344.748" cy="693.583" r="4.252"/>
<circle fill="none" stroke="#000000" stroke-miterlimit="10" cx="344.748" cy="608.544" r="4.252"/>
<circle fill="none" stroke="#000000" stroke-miterlimit="10" cx="259.708" cy="608.544" r="4.252"/>
<circle fill="none" stroke="#000000" stroke-miterlimit="10" cx="302.229" cy="651.059" r="77.953"/>
<circle fill="none" stroke="#000000" stroke-miterlimit="10" cx="302.228" cy="651.06" r="8.646"/>
<circle fill="none" stroke="#000000" stroke-miterlimit="10" cx="89.629" cy="350.591" r="4.252"/>
<circle fill="none" stroke="#000000" stroke-miterlimit="10" cx="174.669" cy="350.591" r="4.252"/>
<circle fill="none" stroke="#000000" stroke-miterlimit="10" cx="174.669" cy="265.551" r="4.252"/>
<circle fill="none" stroke="#000000" stroke-miterlimit="10" cx="89.629" cy="265.551" r="4.252"/>
<circle fill="none" stroke="#000000" stroke-miterlimit="10" cx="132.15" cy="308.067" r="77.953"/>
<circle fill="none" stroke="#000000" stroke-miterlimit="10" cx="132.15" cy="308.068" r="8.646"/>
<circle fill="none" stroke="#000000" stroke-miterlimit="10" cx="259.708" cy="863.658" r="4.252"/>
<circle fill="none" stroke="#000000" stroke-miterlimit="10" cx="344.748" cy="863.658" r="4.252"/>
<circle fill="none" stroke="#000000" stroke-miterlimit="10" cx="344.748" cy="778.624" r="4.252"/>
<circle fill="none" stroke="#000000" stroke-miterlimit="10" cx="259.708" cy="778.624" r="4.252"/>
<circle fill="none" stroke="#000000" stroke-miterlimit="10" cx="302.229" cy="821.139" r="77.953"/>
<circle fill="none" stroke="#000000" stroke-miterlimit="10" cx="302.228" cy="821.14" r="8.646"/>
<circle fill="none" stroke="#000000" stroke-miterlimit="10" cx="89.627" cy="693.583" r="4.252"/>
<circle fill="none" stroke="#000000" stroke-miterlimit="10" cx="174.667" cy="693.583" r="4.252"/>
<circle fill="none" stroke="#000000" stroke-miterlimit="10" cx="174.667" cy="608.544" r="4.252"/>
<circle fill="none" stroke="#000000" stroke-miterlimit="10" cx="89.627" cy="608.544" r="4.252"/>
<circle fill="none" stroke="#000000" stroke-miterlimit="10" cx="132.148" cy="651.059" r="77.953"/>
<circle fill="none" stroke="#000000" stroke-miterlimit="10" cx="132.148" cy="651.06" r="8.646"/>
<circle fill="none" stroke="#000000" stroke-miterlimit="10" cx="89.627" cy="863.658" r="4.252"/>
<circle fill="none" stroke="#000000" stroke-miterlimit="10" cx="174.667" cy="863.658" r="4.252"/>
<circle fill="none" stroke="#000000" stroke-miterlimit="10" cx="174.667" cy="778.624" r="4.252"/>
<circle fill="none" stroke="#000000" stroke-miterlimit="10" cx="89.627" cy="778.624" r="4.252"/>
<circle fill="none" stroke="#000000" stroke-miterlimit="10" cx="132.148" cy="821.139" r="77.953"/>
<circle fill="none" stroke="#000000" stroke-miterlimit="10" cx="132.148" cy="821.14" r="8.646"/>
<circle fill="none" stroke="#000000" stroke-miterlimit="10" cx="89.629" cy="520.671" r="4.252"/>
<circle fill="none" stroke="#000000" stroke-miterlimit="10" cx="174.669" cy="520.671" r="4.252"/>
<circle fill="none" stroke="#000000" stroke-miterlimit="10" cx="174.669" cy="435.631" r="4.252"/>
<circle fill="none" stroke="#000000" stroke-miterlimit="10" cx="89.629" cy="435.631" r="4.252"/>
<circle fill="none" stroke="#000000" stroke-miterlimit="10" cx="132.15" cy="478.147" r="77.953"/>
<circle fill="none" stroke="#000000" stroke-miterlimit="10" cx="132.15" cy="478.148" r="8.646"/>
<circle fill="none" stroke="#9D53A0" stroke-miterlimit="10" cx="1303.052" cy="1342.433" r="82.204"/>
<circle fill="none" stroke="#9D53A0" stroke-miterlimit="10" cx="1303.051" cy="1238.968" r="8.504"/>
<circle fill="none" stroke="#9D53A0" stroke-miterlimit="10" cx="1199.587" cy="1342.433" r="8.504"/>
<circle fill="none" stroke="#9D53A0" stroke-miterlimit="10" cx="1303.052" cy="1445.897" r="8.504"/>
<circle fill="none" stroke="#9D53A0" stroke-miterlimit="10" cx="1406.517" cy="1342.433" r="8.504"/>
<circle fill="none" stroke="#9D53A0" stroke-miterlimit="10" cx="1303.052" cy="1342.433" r="124.725"/>
<circle fill="none" stroke="#9D53A0" stroke-miterlimit="10" cx="1579.423" cy="1350.937" r="82.204"/>
<circle fill="none" stroke="#9D53A0" stroke-miterlimit="10" cx="1579.422" cy="1247.472" r="8.504"/>
<circle fill="none" stroke="#9D53A0" stroke-miterlimit="10" cx="1475.958" cy="1350.937" r="8.504"/>
<circle fill="none" stroke="#9D53A0" stroke-miterlimit="10" cx="1579.423" cy="1454.401" r="8.504"/>
<circle fill="none" stroke="#9D53A0" stroke-miterlimit="10" cx="1682.888" cy="1350.937" r="8.504"/>
<circle fill="none" stroke="#9D53A0" stroke-miterlimit="10" cx="1579.423" cy="1350.937" r="124.725"/>
<circle fill="none" stroke="#9D53A0" stroke-miterlimit="10" cx="1579.421" cy="1350.938" r="9.921"/>
<circle fill="none" stroke="#9D53A0" stroke-miterlimit="10" cx="1536.9" cy="1308.417" r="4.252"/>
<circle fill="none" stroke="#9D53A0" stroke-miterlimit="10" cx="1621.94" cy="1308.417" r="4.252"/>
<circle fill="none" stroke="#9D53A0" stroke-miterlimit="10" cx="1621.94" cy="1393.457" r="4.252"/>
<circle fill="none" stroke="#9D53A0" stroke-miterlimit="10" cx="1536.9" cy="1393.457" r="4.252"/>
<path fill="none" stroke="#9D53A0" stroke-miterlimit="10" d="M1636.112,1393.456c0,7.828-6.346,14.174-14.173,14.174h-85.04
	c-7.827,0-14.173-6.346-14.173-14.174v-85.039c0-7.828,6.346-14.174,14.173-14.174h85.04c7.827,0,14.173,6.346,14.173,14.174
	V1393.456z"/>
<rect x="1576.587" y="1366.529" fill="none" stroke="#9D53A0" stroke-miterlimit="10" width="5.669" height="2.835"/>
<g>
	<path fill="none" stroke="#000000" d="M-1243.3,245.365c0,5.351,3.9,9.051,10.301,9.051s10.8-2.65,10.8-9.25
		c0-6.601-3.9-10.151-12.601-10.151c8.65,0.05,11.451-3.5,11.451-8.3s-2.45-8.551-9.25-8.551c-6.75,0-10,4.25-10,9.051
		c0-4.8,3.25-9.051,10-9.051c6.8,0,9.25,3.75,9.25,8.551s-2.8,8.351-11.451,8.3c8.701,0,12.601,3.55,12.601,10.151
		c0,6.6-4.4,9.25-10.8,9.25S-1243.3,250.716-1243.3,245.365z"/>
	<path fill="none" stroke="#000000" d="M-1205,218.364l15.501,36.052l15.551-36.052v36.052v-36.052l-15.551,36.052L-1205,218.364
		v36.052V218.364z"/>
	<path fill="none" stroke="#000000" d="M-1150.351,254.416v-36.052l15.501,36.052l15.551-36.052v36.052v-36.052l-15.551,36.052
		l-15.501-36.052V254.416z"/>
</g>
<path fill="none" stroke="#000000" stroke-miterlimit="10" d="M1288.202,699.584c0-2.349-1.904-4.252-4.252-4.252
	c-2.349,0-4.252,1.903-4.252,4.252c0,0.55,0.112,1.071,0.303,1.554h-64.082v48.189l0,0c-2.349,0-4.252,1.904-4.252,4.252
	c0,2.349,1.903,4.252,4.252,4.252c2.348,0,4.252-1.903,4.252-4.252c0-0.5-0.103-0.973-0.262-1.418h64.041v-48.325
	C1286.298,703.836,1288.202,701.933,1288.202,699.584z"/>
<circle fill="none" stroke="#000000" stroke-miterlimit="10" cx="1355.003" cy="685.479" r="4.252"/>
<circle fill="none" stroke="#000000" stroke-miterlimit="10" cx="1355.003" cy="767.685" r="4.252"/>
<rect x="1340.83" y="705.321" fill="none" stroke="#000000" stroke-miterlimit="10" width="22.677" height="42.52"/>
<g>
	<path fill="none" stroke="#BE762A" stroke-miterlimit="10" d="M1314.938,719.985c-1.438,0-2.746-0.888-2.734-2.999
		c0.037-2.11,1.213-3.082,2.734-3.082h5.914h-5.914c-1.521,0-2.697,0.972-2.734,3.082
		C1312.192,719.098,1313.501,719.985,1314.938,719.985c1.439,0,5.914,0,5.914,0S1316.378,719.985,1314.938,719.985z"/>
	<path fill="none" stroke="#BE762A" stroke-miterlimit="10" d="M1314.808,722.869c-1.92,0-2.688,1.463-2.688,3.178
		c0,1.738,1.092,2.83,2.16,2.866c1.055,0.036,1.895-0.503,2.123-1.571l0.635-2.938c0.18-0.828,0.66-1.32,1.787-1.32
		s2.1,0.947,2.1,2.675s-0.816,2.986-2.244,2.938c1.428,0.048,2.244-1.211,2.244-2.938s-0.973-2.675-2.1-2.675
		s-1.596,0.469-1.787,1.32l-0.635,2.938c-0.229,1.092-1.068,1.607-2.123,1.571c-1.068-0.036-2.16-1.128-2.16-2.866
		C1312.12,724.332,1312.888,722.869,1314.808,722.869z"/>
	<path fill="none" stroke="#BE762A" stroke-miterlimit="10" d="M1316.642,733.127v3.322c0,1.728,1.045,2.436,2.088,2.399
		c1.043-0.048,2.111-0.78,2.111-2.375v-3.347h-8.648v3.683c0,1.367,0.816,2.446,2.184,2.446c1.367-0.023,2.266-1.163,2.266-2.807
		c0,1.644-0.898,2.783-2.266,2.807c-1.367,0-2.184-1.079-2.184-2.446v-3.683h8.648v3.347c0,1.595-1.068,2.327-2.111,2.375
		c-1.043,0.036-2.088-0.672-2.088-2.399V733.127z"/>
</g>
<circle fill="none" stroke="#72BF44" stroke-miterlimit="10" cx="124.917" cy="1422.091" r="4.252"/>
<circle fill="none" stroke="#72BF44" stroke-miterlimit="10" cx="295.291" cy="1422.09" r="4.252"/>
<circle fill="none" stroke="#72BF44" stroke-miterlimit="10" cx="295.29" cy="1251.717" r="4.252"/>
<circle fill="none" stroke="#72BF44" stroke-miterlimit="10" cx="124.917" cy="1251.717" r="4.252"/>
<path fill="none" stroke="#72BF44" stroke-miterlimit="10" d="M115.753,1231.584c11.07-11.07,29.018-11.07,40.088-0.001
	c11.069,11.07,11.07,29.019,0,40.089l-0.116-0.145c-18.737,15.6-30.664,39.101-30.664,65.388c0,46.967,38.073,85.04,85.04,85.04
	c46.966,0,85.039-38.073,85.039-85.04c0-26.286-11.926-49.785-30.66-65.384l0.245,0.084c-11.068-11.07-11.068-29.018,0-40.088
	c11.07-11.07,29.018-11.07,40.088,0l0.027-0.029c28.85,25.945,46.992,63.562,46.992,105.417
	c0,78.276-63.455,141.732-141.731,141.732s-141.732-63.456-141.732-141.732c0-41.938,18.215-79.622,47.165-105.572L115.753,1231.584
	z"/>
<circle fill="none" stroke="#000000" stroke-miterlimit="10" cx="914.56" cy="398.776" r="8.504"/>
<circle fill="none" stroke="#000000" stroke-miterlimit="10" cx="826.688" cy="398.776" r="8.504"/>
<circle fill="none" stroke="#000000" stroke-miterlimit="10" cx="914.56" cy="310.904" r="8.504"/>
<circle fill="none" stroke="#000000" stroke-miterlimit="10" cx="826.688" cy="310.904" r="8.504"/>
<path fill="none" stroke="#010101" stroke-width="1.6" d="M870.626,332.163c12.521,0,22.674,10.152,22.674,22.674
	c0,12.527-10.152,22.681-22.674,22.681c-12.525,0-22.677-10.153-22.677-22.681C847.95,342.315,858.101,332.163,870.626,332.163z"/>
<text transform="matrix(-4.371139e-08 -1 1 -4.371139e-08 908.5518 389.0654)" fill="none" stroke="#F58220" stroke-width="0.216" stroke-miterlimit="2.6131" font-family="'Eng_HelvLine'" font-size="12">shutdown</text>
<g>
	<path fill="none" stroke="#000000" stroke-miterlimit="10" d="M741.65,1194.799c0,7.827-6.346,14.173-14.174,14.173h-99.202
		c-7.828,0-14.174-6.346-14.174-14.173v-99.211c0-7.827,6.346-14.173,14.174-14.173h99.202c7.828,0,14.174,6.346,14.174,14.173
		V1194.799z"/>
	<circle fill="none" stroke="#010101" stroke-width="1.6" cx="677.875" cy="1144.535" r="8.362"/>
	<circle fill="none" stroke="#000000" stroke-miterlimit="10" cx="633.938" cy="1187.797" r="8.504"/>
	<circle fill="none" stroke="#000000" stroke-miterlimit="10" cx="633.938" cy="1099.925" r="8.504"/>
	<circle fill="none" stroke="#000000" stroke-miterlimit="10" cx="721.811" cy="1187.797" r="8.504"/>
	<circle fill="none" stroke="#000000" stroke-miterlimit="10" cx="721.811" cy="1099.925" r="8.504"/>
</g>
</svg>
